<svg width="153" height="40" viewBox="0 0 153 40" fill="none" xmlns="http://www.w3.org/2000/svg">
<path d="M15 35.1428C22.1008 35.1428 27.8572 29.3865 27.8572 22.2857C27.8572 15.1849 22.1008 9.42856 15 9.42856C7.89922 9.42856 2.14288 15.1849 2.14288 22.2857C2.14288 29.3865 7.89922 35.1428 15 35.1428Z" fill="url(#paint0_linear_16_24)"/>
<path d="M7.85718 16.5714H22.1429" stroke="white" stroke-width="1.14286" stroke-linecap="round"/>
<path d="M6.42853 22.2858H23.5714" stroke="white" stroke-width="1.14286" stroke-linecap="round"/>
<path d="M9.28577 28H20.7143" stroke="white" stroke-width="1.14286" stroke-linecap="round"/>
<path d="M7.8571 18C8.64608 18 9.28567 17.3604 9.28567 16.5714C9.28567 15.7824 8.64608 15.1428 7.8571 15.1428C7.06812 15.1428 6.42853 15.7824 6.42853 16.5714C6.42853 17.3604 7.06812 18 7.8571 18Z" fill="white"/>
<path d="M22.1429 18C22.9318 18 23.5714 17.3604 23.5714 16.5714C23.5714 15.7824 22.9318 15.1428 22.1429 15.1428C21.3539 15.1428 20.7143 15.7824 20.7143 16.5714C20.7143 17.3604 21.3539 18 22.1429 18Z" fill="white"/>
<path d="M6.4286 23.7143C7.21758 23.7143 7.85717 23.0747 7.85717 22.2857C7.85717 21.4967 7.21758 20.8571 6.4286 20.8571C5.63962 20.8571 5.00003 21.4967 5.00003 22.2857C5.00003 23.0747 5.63962 23.7143 6.4286 23.7143Z" fill="white"/>
<path d="M23.5715 23.7143C24.3604 23.7143 25 23.0747 25 22.2857C25 21.4967 24.3604 20.8571 23.5715 20.8571C22.7825 20.8571 22.1429 21.4967 22.1429 22.2857C22.1429 23.0747 22.7825 23.7143 23.5715 23.7143Z" fill="white"/>
<path d="M9.28575 29.4286C10.0747 29.4286 10.7143 28.789 10.7143 28C10.7143 27.211 10.0747 26.5714 9.28575 26.5714C8.49677 26.5714 7.85718 27.211 7.85718 28C7.85718 28.789 8.49677 29.4286 9.28575 29.4286Z" fill="white"/>
<path d="M20.7143 29.4286C21.5033 29.4286 22.1429 28.789 22.1429 28C22.1429 27.211 21.5033 26.5714 20.7143 26.5714C19.9254 26.5714 19.2858 27.211 19.2858 28C19.2858 28.789 19.9254 29.4286 20.7143 29.4286Z" fill="white"/>
<path d="M31.826 33.3671C31.5813 33.3671 31.4145 33.3337 31.3255 33.267C31.2587 33.2225 31.2253 33.089 31.2253 32.8665V28.4281C31.2253 28.2946 31.2365 28.1723 31.2587 28.061C31.3032 27.9275 31.37 27.8163 31.4589 27.7273C31.5034 27.6828 31.5146 27.6161 31.4923 27.5271C31.4923 27.4158 31.4923 27.3157 31.4923 27.2267V24.8907C31.4923 24.7795 31.4812 24.6571 31.4589 24.5237C31.4367 24.3902 31.3922 24.2678 31.3255 24.1566C31.281 24.0898 31.3032 23.9897 31.3922 23.8562C31.4812 23.7227 31.5257 23.5893 31.5257 23.4558C31.5257 23.3 31.4923 23.1777 31.4256 23.0887C31.3588 22.9774 31.3255 22.8662 31.3255 22.755C31.3255 22.6215 31.37 22.4991 31.4589 22.3879L31.3588 20.8528C31.4701 20.7416 31.4812 20.5969 31.3922 20.419C31.3255 20.241 31.2698 20.0741 31.2253 19.9184C31.1809 19.8072 31.2142 19.707 31.3255 19.6181C31.4589 19.5291 31.4589 19.4178 31.3255 19.2843C31.281 19.2176 31.2476 19.0285 31.2253 18.717C31.2253 18.3833 31.2253 18.0273 31.2253 17.6491C31.2476 17.2487 31.2698 16.9038 31.2921 16.6146C31.3366 16.3032 31.3811 16.1363 31.4256 16.114C31.2698 15.8248 31.192 15.4355 31.192 14.9461C31.192 14.4566 31.2921 14.1118 31.4923 13.9115C31.4923 13.7558 31.5034 13.6112 31.5257 13.4777C31.5479 13.322 31.4923 13.1774 31.3588 13.0439C31.2476 12.8881 31.2031 12.7547 31.2253 12.6434C31.2476 12.5099 31.3032 12.3653 31.3922 12.2096C31.5924 11.9426 31.6147 11.6534 31.4589 11.3419C31.2587 11.0972 31.1809 10.8636 31.2253 10.6411C31.2698 10.3964 31.3588 10.1072 31.4923 9.77348C31.5591 9.72898 31.6369 9.69561 31.7259 9.67336C31.8149 9.62887 31.9039 9.63999 31.9929 9.70673C32.0596 9.75123 32.1931 9.84022 32.3933 9.9737C32.6158 10.0849 32.8161 10.2184 32.994 10.3742C33.1943 10.5299 33.2944 10.6856 33.2944 10.8414C33.3166 10.9304 33.4167 10.986 33.5947 11.0082C33.7949 11.0305 33.8728 11.1417 33.8283 11.3419C35.5414 12.4321 36.8095 13.2997 37.6327 13.9449C38.4558 14.5678 38.9341 14.9683 39.0676 15.1463C39.1789 15.302 39.3235 15.4355 39.5015 15.5467C39.6794 15.6357 39.8463 15.7358 40.002 15.8471C40.8919 16.5813 41.6929 17.1931 42.4048 17.6825C43.1167 18.172 43.7953 18.6725 44.4404 19.1842C44.6184 19.3177 44.7964 19.4623 44.9744 19.6181C45.1746 19.7515 45.3192 19.9073 45.4082 20.0853C45.4972 20.2187 45.6641 20.3856 45.9088 20.5858C46.1758 20.7638 46.4205 20.9529 46.643 21.1531C46.8654 21.3311 46.9767 21.498 46.9767 21.6537C46.9767 21.7205 46.7987 21.9429 46.4427 22.3211C46.0868 22.6771 45.6863 23.0553 45.2414 23.4558C44.7964 23.8562 44.4293 24.1788 44.1401 24.4235C44.0734 24.468 43.7619 24.6905 43.2057 25.091C42.6495 25.4914 41.9598 26.0031 41.1367 26.6261C40.3135 27.2267 39.4347 27.8719 38.5003 28.5616C37.5882 29.229 36.7205 29.8742 35.8973 30.4971C35.0742 31.1201 34.3845 31.6429 33.8283 32.0656C33.2944 32.4661 33.0052 32.7108 32.9607 32.7998C32.8717 32.9333 32.7493 33.0445 32.5936 33.1335C32.4601 33.178 32.3377 33.2336 32.2265 33.3003C32.1153 33.3671 31.9818 33.3893 31.826 33.3671ZM32.1264 31.9321C32.1486 31.9989 32.182 32.0322 32.2265 32.0322C32.2932 32.0322 32.4267 31.9544 32.6269 31.7986C32.8049 31.6206 33.0385 31.4315 33.3277 31.2313C33.617 31.0088 33.8394 30.8086 33.9952 30.6306C34.1064 30.5194 34.3845 30.2969 34.8295 29.9632C35.2967 29.6072 35.8195 29.2402 36.3979 28.8619C36.9764 28.4615 37.4881 28.1055 37.933 27.7941C38.4002 27.4603 38.6894 27.249 38.8007 27.16C38.9564 27.071 39.1566 26.9041 39.4013 26.6594C39.6683 26.4147 39.8685 26.2367 40.002 26.1255C40.1355 26.0142 40.2801 25.903 40.4359 25.7918C40.6138 25.6805 40.7918 25.5915 40.9698 25.5248C41.1033 25.4581 41.2145 25.3468 41.3035 25.1911C41.4148 25.0353 41.5705 24.9464 41.7707 24.9241C42.5271 24.4124 43.1834 23.923 43.7396 23.4558C44.2958 22.9886 44.852 22.4991 45.4082 21.9874C45.5862 21.8094 45.6641 21.676 45.6418 21.587C45.6196 21.4757 45.5639 21.409 45.475 21.3867C45.3637 21.32 45.208 21.2421 45.0078 21.1531C44.8298 21.0419 44.7185 20.9307 44.674 20.8194C44.6518 20.7082 44.5517 20.6414 44.3737 20.6192C44.218 20.5969 44.1401 20.508 44.1401 20.3522C44.1178 20.3077 44.0622 20.2187 43.9732 20.0853C43.9065 19.9518 43.8398 19.8739 43.773 19.8517C43.2836 19.6514 42.9054 19.4734 42.6384 19.3177C42.3714 19.1397 42.0377 18.9061 41.6372 18.6169C41.5482 18.4167 41.3369 18.172 41.0032 17.8827C40.6695 17.5713 40.2913 17.2598 39.8685 16.9483C39.4458 16.6146 39.0565 16.3254 38.7005 16.0807C38.3668 15.8137 38.1444 15.6357 38.0331 15.5467C38.0109 15.5245 37.8329 15.4021 37.4992 15.1796C37.1877 14.9572 36.7984 14.6791 36.3312 14.3454C35.864 14.0116 35.3745 13.6668 34.8628 13.3108C34.3734 12.9549 33.9173 12.6212 33.4946 12.3097C33.0941 11.9982 32.8049 11.7646 32.6269 11.6089C32.5602 11.5422 32.5046 11.5755 32.4601 11.709C32.4156 11.8425 32.3933 11.976 32.3933 12.1095C32.3711 13.2441 32.36 14.3231 32.36 15.3465C32.36 16.3476 32.36 17.4378 32.36 18.6169C32.36 18.7504 32.4267 18.9061 32.5602 19.0841C32.6047 19.1286 32.5936 19.2065 32.5268 19.3177C32.4601 19.3622 32.4156 19.5291 32.3933 19.8183C32.3711 20.1075 32.36 20.4301 32.36 20.7861C32.36 21.142 32.36 21.4646 32.36 21.7538C32.3822 22.0208 32.3933 22.1877 32.3933 22.2544L32.36 30.1968C32.36 30.308 32.3155 30.4304 32.2265 30.5639C32.1375 30.6974 32.182 30.8309 32.36 30.9643C32.3822 30.9866 32.36 31.0533 32.2932 31.1646C32.2487 31.2536 32.2042 31.3759 32.1597 31.5317C32.1153 31.6874 32.1041 31.8209 32.1264 31.9321ZM37.2322 22.8551C36.8317 22.8551 36.5537 22.7216 36.3979 22.4546C36.2422 22.1654 36.1643 21.9429 36.1643 21.7872C36.1643 21.5202 36.2756 21.2977 36.498 21.1198C36.7428 20.9195 37.0765 20.8194 37.4992 20.8194C37.8774 20.7972 38.2 20.9529 38.4669 21.2866C38.6449 21.5313 38.6449 21.7872 38.4669 22.0542C38.3112 22.2321 38.1221 22.4101 37.8996 22.5881C37.6994 22.7661 37.4769 22.8551 37.2322 22.8551ZM37.3323 22.0875C37.4658 22.0875 37.577 22.0208 37.666 21.8873C37.7105 21.8428 37.7105 21.7761 37.666 21.6871C37.5993 21.5981 37.5214 21.5647 37.4324 21.587C37.21 21.587 37.0987 21.6648 37.0987 21.8206C37.0987 21.8428 37.1098 21.8984 37.1321 21.9874C37.1766 22.0542 37.2433 22.0875 37.3323 22.0875ZM49.3025 33C48.9688 32.9333 48.7463 32.8443 48.6351 32.733C48.5461 32.6218 48.4793 32.4438 48.4348 32.1991C48.3903 31.9321 48.3681 31.6651 48.3681 31.3982V21.5202C48.3681 21.3422 48.3681 21.1865 48.3681 21.053C48.3903 20.8973 48.4015 20.7416 48.4015 20.5858C48.4015 20.2076 48.3681 19.8183 48.3014 19.4178C48.2569 19.0174 48.2791 18.6837 48.3681 18.4167C48.4793 18.1497 48.7463 18.0273 49.169 18.0496C49.525 18.0496 49.7808 18.0496 49.9366 18.0496C50.0923 18.0496 50.2703 18.0496 50.4705 18.0496C50.6707 18.0496 51.0267 18.0496 51.5384 18.0496C51.7386 18.0496 51.9388 18.0385 52.1391 18.0162C52.3615 17.994 52.5729 17.9829 52.7731 17.9829C53.0846 17.9829 53.5629 17.9829 54.2081 17.9829C54.8755 17.9829 55.5763 17.9829 56.3105 17.9829C57.0669 17.9829 57.7343 17.9829 58.3128 17.9829C58.8912 17.9829 59.2583 17.9717 59.414 17.9495H59.8145C60.3262 17.9495 60.6822 18.0273 60.8824 18.1831C61.1049 18.3388 61.2161 18.539 61.2161 18.7838C61.2161 19.2287 60.9269 19.6848 60.3484 20.152C60.126 20.3077 59.859 20.4857 59.5475 20.6859C59.2361 20.8862 58.958 21.1086 58.7132 21.3534C58.3128 21.8873 57.9568 22.2433 57.6454 22.4213C57.3561 22.5992 57.0669 22.8885 56.7777 23.2889C56.4217 23.7784 55.999 24.1788 55.5096 24.4903C55.0201 24.8017 54.6086 25.18 54.2748 25.6249C53.9634 26.0254 53.6074 26.3146 53.207 26.4926C52.8065 26.6483 52.4172 26.9486 52.039 27.3936C51.8832 27.6161 51.7164 27.8274 51.5384 28.0277C51.3827 28.2056 51.1046 28.4504 50.7041 28.7618C50.5261 28.9843 50.337 29.1512 50.1368 29.2624C49.9366 29.3514 49.7697 29.4626 49.6362 29.5961C49.525 29.7296 49.4694 29.9521 49.4694 30.2635C49.4694 30.5528 49.4471 30.8754 49.4026 31.2313C49.3804 31.5873 49.4582 31.7653 49.6362 31.7653C49.703 31.7653 49.8809 31.7653 50.1702 31.7653C50.4594 31.7653 50.7931 31.7653 51.1713 31.7653C51.5495 31.743 51.8832 31.7319 52.1724 31.7319C52.4839 31.7319 52.6841 31.7319 52.7731 31.7319C52.9511 31.7319 53.1736 31.7319 53.4406 31.7319C53.7298 31.7096 53.9634 31.7541 54.1414 31.8654C54.2526 31.9099 54.3861 31.9321 54.5418 31.9321C54.6975 31.9099 54.8533 31.8987 55.009 31.8987C55.3872 31.8542 55.7321 31.8431 56.0435 31.8654C56.3772 31.8654 56.7332 31.8765 57.1114 31.8987C57.2227 31.8987 57.4896 31.8987 57.9123 31.8987C58.335 31.8765 58.7577 31.8542 59.1804 31.832C59.6032 31.8098 59.859 31.7764 59.948 31.7319C60.037 31.6651 60.2372 31.6874 60.5487 31.7986C60.8601 31.8876 61.0492 31.9877 61.116 32.099C61.1827 32.2102 61.1827 32.3882 61.116 32.6329C61.0492 32.8776 60.9158 33 60.7155 33C60.6265 33 60.3262 33 59.8145 33C59.3251 33 58.7132 33 57.9791 33C57.2449 33 56.4774 33 55.6764 33C54.8755 33 54.108 33 53.3738 33C52.6619 33 52.0612 33 51.5718 33C51.1046 33 50.8376 33 50.7708 33C50.1702 33.0667 49.6807 33.0667 49.3025 33ZM49.436 28.328C49.614 27.9943 49.8587 27.7384 50.1702 27.5605C50.4816 27.3825 50.7931 27.2045 51.1046 27.0265C51.416 26.8485 51.6496 26.5816 51.8054 26.2256C52.2726 25.8251 52.6953 25.4136 53.0735 24.9909C53.4739 24.5459 53.9523 24.2122 54.5084 23.9897C54.6642 23.923 54.8199 23.8117 54.9756 23.656C55.1314 23.478 55.2871 23.3112 55.4428 23.1554C55.8655 22.6882 56.3661 22.221 56.9446 21.7538C57.523 21.2866 57.9457 20.9195 58.2127 20.6526C58.2794 20.6081 58.4018 20.4968 58.5798 20.3189C58.7577 20.1409 58.9357 19.9518 59.1137 19.7515C59.3139 19.5291 59.4363 19.34 59.4808 19.1842C59.5475 19.0285 59.4919 18.9506 59.3139 18.9506C58.869 18.9506 58.246 18.9506 57.4451 18.9506C56.6442 18.9506 55.8433 18.9617 55.0424 18.984C54.2637 18.984 53.6408 18.984 53.1736 18.984C52.8176 18.984 52.4505 18.984 52.0723 18.984C51.6941 18.984 51.3159 18.9951 50.9377 19.0174C50.782 19.0174 50.5706 19.0396 50.3036 19.0841C50.0367 19.1064 49.8031 19.2065 49.6028 19.3845C49.4249 19.5624 49.3359 19.8739 49.3359 20.3189C49.3581 20.7861 49.3804 21.3756 49.4026 22.0875C49.4249 22.7995 49.4471 23.5448 49.4694 24.3234C49.4916 25.1021 49.5027 25.8474 49.5027 26.5593C49.5027 27.2712 49.4805 27.8608 49.436 28.328ZM53.6074 22.488C53.3849 22.7105 53.1068 22.7327 52.7731 22.5547C52.4617 22.3768 52.2281 22.1877 52.0723 21.9874C51.9388 21.8094 51.8721 21.6315 51.8721 21.4535C51.8721 21.2755 51.9277 21.0864 52.039 20.8862C52.1724 20.6637 52.3171 20.5413 52.4728 20.5191C52.7175 20.4746 53.0067 20.4746 53.3404 20.5191C53.6964 20.5413 53.8744 20.7193 53.8744 21.053C53.8744 21.2977 53.9523 21.4757 54.108 21.587C54.2637 21.6982 54.2526 21.8428 54.0746 22.0208L53.6074 22.488ZM53.1736 21.8206L53.3071 21.6871C53.3516 21.6426 53.3516 21.6092 53.3071 21.587C53.2626 21.5647 53.2403 21.5091 53.2403 21.4201C53.2403 21.3311 53.1958 21.2866 53.1068 21.2866C53.0179 21.2644 52.94 21.2644 52.8732 21.2866C52.762 21.3311 52.7064 21.4201 52.7064 21.5536C52.7064 21.6203 52.7286 21.6648 52.7731 21.6871C52.8176 21.7316 52.8732 21.7872 52.94 21.8539C53.029 21.8984 53.1068 21.8873 53.1736 21.8206ZM63.7278 39.6743C63.6166 39.652 63.5053 39.5964 63.3941 39.5074C63.3051 39.4184 63.2606 39.2627 63.2606 39.0402V30.6974C63.2606 30.3414 63.3385 30.0411 63.4942 29.7963C63.383 29.6629 63.3051 29.5294 63.2606 29.3959C63.2384 29.2402 63.2273 29.0844 63.2273 28.9287L63.294 19.0174V18.1163C63.294 18.0496 63.3385 17.9495 63.4275 17.816C63.5165 17.6825 63.7723 17.6158 64.195 17.6158L65.5299 17.7493C65.6634 17.7715 65.7969 17.7937 65.9303 17.816C66.0861 17.816 66.2307 17.8716 66.3642 17.9829C66.4532 18.0496 66.5644 18.0718 66.6979 18.0496C66.8536 18.0273 66.9871 18.0162 67.0983 18.0162H74.3733C74.4846 18.0162 74.6069 18.0162 74.7404 18.0162C74.8739 18.0162 74.9962 18.0273 75.1075 18.0496C75.241 18.0496 75.3633 18.1163 75.4746 18.2498C75.6081 18.3611 75.6748 18.4945 75.6748 18.6503V24.0231C75.6748 24.1343 75.6192 24.2456 75.5079 24.3568C75.419 24.4458 75.4523 24.5681 75.6081 24.7239C75.7193 24.8129 75.7193 24.913 75.6081 25.0242C75.5191 25.1132 75.4746 25.2133 75.4746 25.3246C75.4523 25.814 75.4412 26.3257 75.4412 26.8597C75.4412 27.3713 75.4412 27.883 75.4412 28.3947C75.7082 28.684 75.7193 28.9621 75.4746 29.229C75.5636 29.3625 75.6192 29.496 75.6414 29.6295C75.6859 29.763 75.6303 29.9076 75.4746 30.0633C75.6526 30.2413 75.6859 30.4638 75.5747 30.7307C75.4634 30.9755 75.4078 31.2536 75.4078 31.565C75.4523 31.7208 75.4078 31.8542 75.2743 31.9655C75.1631 32.0767 75.0407 32.1435 74.9073 32.1657C74.8405 32.2325 74.7404 32.2102 74.6069 32.099C74.4512 32.01 74.1175 31.7208 73.6058 31.2313C73.1163 30.7196 72.5156 30.0967 71.8037 29.3625C71.114 28.6283 70.391 27.8608 69.6346 27.0599C68.8782 26.259 68.1551 25.5025 67.4654 24.7906C66.798 24.0565 66.2418 23.4558 65.7969 22.9886C65.6634 22.8551 65.4631 22.6215 65.1962 22.2878C64.9292 21.9318 64.6622 21.5425 64.3953 21.1198C64.1728 21.2977 64.1283 21.4646 64.2618 21.6203C64.3953 21.7538 64.4397 21.8873 64.3953 22.0208C64.3508 22.1765 64.284 22.3656 64.195 22.5881C64.1283 22.7883 64.1505 22.9441 64.2618 23.0553C64.462 23.3223 64.4842 23.5893 64.3285 23.8562C64.1728 24.0565 64.106 24.2789 64.1283 24.5237C64.1505 24.7461 64.1617 24.9797 64.1617 25.2245C64.3396 25.4024 64.4286 25.6249 64.4286 25.8919L64.3953 34.8021C64.3953 34.9133 64.3953 35.0245 64.3953 35.1358C64.3953 35.247 64.4064 35.3582 64.4286 35.4695C64.4286 35.603 64.3953 35.7253 64.3285 35.8366C64.2618 35.9478 64.2173 36.0479 64.195 36.1369C64.195 36.2482 64.2173 36.3483 64.2618 36.4373C64.3285 36.5262 64.3063 36.6264 64.195 36.7376C64.1283 36.8043 64.1394 36.9156 64.2284 37.0713C64.3396 37.2493 64.3953 37.3939 64.3953 37.5051C64.4175 37.5941 64.4286 37.7721 64.4286 38.0391C64.4286 38.3061 64.4286 38.5619 64.4286 38.8066C64.4286 39.0736 64.4175 39.2516 64.3953 39.3406C64.3063 39.5631 64.0838 39.6743 63.7278 39.6743ZM74.4067 30.5973C74.4067 30.486 74.4401 30.2302 74.5068 29.8297C74.5958 29.4293 74.6514 29.1623 74.6737 29.0288C74.6959 28.9398 74.707 28.8397 74.707 28.7285C74.7293 28.6172 74.7182 28.5394 74.6737 28.4949C74.5179 28.2279 74.4957 27.9943 74.6069 27.7941C74.4512 27.6383 74.3622 27.3936 74.3399 27.0599C74.3177 26.7262 74.2954 26.4814 74.2732 26.3257C74.251 26.17 74.2621 26.0365 74.3066 25.9253C74.3733 25.814 74.4178 25.6917 74.4401 25.5582C74.2843 25.3802 74.2732 25.2245 74.4067 25.091C74.5624 24.9352 74.6069 24.7573 74.5402 24.557C74.5179 24.468 74.4957 24.3123 74.4734 24.0898C74.4734 23.8673 74.4734 23.4224 74.4734 22.755C74.4957 22.0653 74.5068 20.9863 74.5068 19.5179C74.5068 19.2732 74.4178 19.1509 74.2398 19.1509H66.0638C65.9081 19.1509 65.7524 19.1397 65.5966 19.1175C65.4631 19.073 65.3297 19.0062 65.1962 18.9173C65.1294 18.8505 65.0071 18.8283 64.8291 18.8505C64.6733 18.8728 64.551 18.9395 64.462 19.0507C64.373 19.1397 64.4175 19.2843 64.5955 19.4846C64.6845 19.5736 64.8513 19.7849 65.0961 20.1186C65.363 20.4301 65.63 20.7638 65.897 21.1198C66.1639 21.4757 66.3197 21.7427 66.3642 21.9207C66.4087 22.0542 66.5088 22.221 66.6645 22.4213C66.8202 22.6215 66.9537 22.7772 67.065 22.8885C68.2663 24.1343 69.4677 25.4024 70.6691 26.6928C71.8927 27.9609 73.1386 29.2624 74.4067 30.5973ZM71.6369 23.5893C71.4144 23.8117 71.1363 23.834 70.8026 23.656C70.4911 23.478 70.2575 23.2889 70.1018 23.0887C69.9683 22.9107 69.9015 22.7327 69.9015 22.5547C69.9015 22.3768 69.9572 22.1877 70.0684 21.9874C70.2019 21.7649 70.3465 21.6426 70.5022 21.6203C70.747 21.5758 71.0362 21.5758 71.3699 21.6203C71.7258 21.6426 71.9038 21.8206 71.9038 22.1543C71.9038 22.399 71.9817 22.577 72.1374 22.6882C72.2932 22.7995 72.282 22.9441 72.1041 23.1221L71.6369 23.5893ZM71.203 22.9218L71.3365 22.7883C71.381 22.7438 71.381 22.7105 71.3365 22.6882C71.292 22.666 71.2698 22.6104 71.2698 22.5214C71.2698 22.4324 71.2253 22.3879 71.1363 22.3879C71.0473 22.3656 70.9694 22.3656 70.9027 22.3879C70.7914 22.4324 70.7358 22.5214 70.7358 22.6549C70.7358 22.7216 70.7581 22.7661 70.8026 22.7883C70.8471 22.8328 70.9027 22.8885 70.9694 22.9552C71.0584 22.9997 71.1363 22.9886 71.203 22.9218ZM79.3498 33C79.0161 32.9333 78.7936 32.8443 78.6824 32.733C78.5934 32.6218 78.5267 32.4438 78.4822 32.1991C78.4377 31.9321 78.4154 31.6651 78.4154 31.3982V21.5202C78.4154 21.3422 78.4154 21.1865 78.4154 21.053C78.4377 20.8973 78.4488 20.7416 78.4488 20.5858C78.4488 20.2076 78.4154 19.8183 78.3487 19.4178C78.3042 19.0174 78.3264 18.6837 78.4154 18.4167C78.5267 18.1497 78.7936 18.0273 79.2163 18.0496C79.5723 18.0496 79.8282 18.0496 79.9839 18.0496C80.1396 18.0496 80.3176 18.0496 80.5178 18.0496C80.7181 18.0496 81.074 18.0496 81.5857 18.0496C81.7859 18.0496 81.9862 18.0385 82.1864 18.0162C82.4089 17.994 82.6202 17.9829 82.8205 17.9829C83.1319 17.9829 83.6103 17.9829 84.2554 17.9829C84.9229 17.9829 85.6237 17.9829 86.3578 17.9829C87.1143 17.9829 87.7817 17.9829 88.3601 17.9829C88.9386 17.9829 89.3056 17.9717 89.4614 17.9495H89.8618C90.3735 17.9495 90.7295 18.0273 90.9297 18.1831C91.1522 18.3388 91.2634 18.539 91.2634 18.7838C91.2634 19.2287 90.9742 19.6848 90.3958 20.152C90.1733 20.3077 89.9063 20.4857 89.5949 20.6859C89.2834 20.8862 89.0053 21.1086 88.7606 21.3534C88.3601 21.8873 88.0042 22.2433 87.6927 22.4213C87.4035 22.5992 87.1143 22.8885 86.825 23.2889C86.4691 23.7784 86.0464 24.1788 85.5569 24.4903C85.0675 24.8017 84.6559 25.18 84.3222 25.6249C84.0107 26.0254 83.6547 26.3146 83.2543 26.4926C82.8538 26.6483 82.4645 26.9486 82.0863 27.3936C81.9306 27.6161 81.7637 27.8274 81.5857 28.0277C81.43 28.2056 81.1519 28.4504 80.7514 28.7618C80.5735 28.9843 80.3843 29.1512 80.1841 29.2624C79.9839 29.3514 79.817 29.4626 79.6835 29.5961C79.5723 29.7296 79.5167 29.9521 79.5167 30.2635C79.5167 30.5528 79.4944 30.8754 79.4499 31.2313C79.4277 31.5873 79.5056 31.7653 79.6835 31.7653C79.7503 31.7653 79.9283 31.7653 80.2175 31.7653C80.5067 31.7653 80.8404 31.7653 81.2186 31.7653C81.5968 31.743 81.9306 31.7319 82.2198 31.7319C82.5312 31.7319 82.7315 31.7319 82.8205 31.7319C82.9984 31.7319 83.2209 31.7319 83.4879 31.7319C83.7771 31.7096 84.0107 31.7541 84.1887 31.8654C84.2999 31.9099 84.4334 31.9321 84.5891 31.9321C84.7449 31.9099 84.9006 31.8987 85.0563 31.8987C85.4346 31.8542 85.7794 31.8431 86.0909 31.8654C86.4246 31.8654 86.7805 31.8765 87.1588 31.8987C87.27 31.8987 87.537 31.8987 87.9597 31.8987C88.3824 31.8765 88.8051 31.8542 89.2278 31.832C89.6505 31.8098 89.9063 31.7764 89.9953 31.7319C90.0843 31.6651 90.2845 31.6874 90.596 31.7986C90.9075 31.8876 91.0966 31.9877 91.1633 32.099C91.2301 32.2102 91.2301 32.3882 91.1633 32.6329C91.0966 32.8776 90.9631 33 90.7629 33C90.6739 33 90.3735 33 89.8618 33C89.3724 33 88.7606 33 88.0264 33C87.2922 33 86.5247 33 85.7238 33C84.9229 33 84.1553 33 83.4211 33C82.7092 33 82.1085 33 81.6191 33C81.1519 33 80.8849 33 80.8182 33C80.2175 33.0667 79.728 33.0667 79.3498 33ZM79.4833 28.328C79.6613 27.9943 79.906 27.7384 80.2175 27.5605C80.529 27.3825 80.8404 27.2045 81.1519 27.0265C81.4634 26.8485 81.697 26.5816 81.8527 26.2256C82.3199 25.8251 82.7426 25.4136 83.1208 24.9909C83.5213 24.5459 83.9996 24.2122 84.5558 23.9897C84.7115 23.923 84.8672 23.8117 85.023 23.656C85.1787 23.478 85.3344 23.3112 85.4902 23.1554C85.9129 22.6882 86.4135 22.221 86.9919 21.7538C87.5703 21.2866 87.993 20.9195 88.26 20.6526C88.3268 20.6081 88.4491 20.4968 88.6271 20.3189C88.8051 20.1409 88.9831 19.9518 89.161 19.7515C89.3613 19.5291 89.4836 19.34 89.5281 19.1842C89.5949 19.0285 89.5392 18.9506 89.3613 18.9506C88.9163 18.9506 88.2934 18.9506 87.4925 18.9506C86.6916 18.9506 85.8906 18.9617 85.0897 18.984C84.3111 18.984 83.6881 18.984 83.2209 18.984C82.865 18.984 82.4979 18.984 82.1197 18.984C81.7415 18.984 81.3632 18.9951 80.985 19.0174C80.8293 19.0174 80.6179 19.0396 80.351 19.0841C80.084 19.1064 79.8504 19.2065 79.6502 19.3845C79.4722 19.5624 79.3832 19.8739 79.3832 20.3189C79.4055 20.7861 79.4277 21.3756 79.4499 22.0875C79.4722 22.7995 79.4944 23.5448 79.5167 24.3234C79.5389 25.1021 79.5501 25.8474 79.5501 26.5593C79.5501 27.2712 79.5278 27.8608 79.4833 28.328ZM83.6547 22.488C83.4323 22.7105 83.1542 22.7327 82.8205 22.5547C82.509 22.3768 82.2754 22.1877 82.1197 21.9874C81.9862 21.8094 81.9194 21.6315 81.9194 21.4535C81.9194 21.2755 81.9751 21.0864 82.0863 20.8862C82.2198 20.6637 82.3644 20.5413 82.5201 20.5191C82.7648 20.4746 83.0541 20.4746 83.3878 20.5191C83.7437 20.5413 83.9217 20.7193 83.9217 21.053C83.9217 21.2977 83.9996 21.4757 84.1553 21.587C84.3111 21.6982 84.2999 21.8428 84.1219 22.0208L83.6547 22.488ZM83.2209 21.8206L83.3544 21.6871C83.3989 21.6426 83.3989 21.6092 83.3544 21.587C83.3099 21.5647 83.2877 21.5091 83.2877 21.4201C83.2877 21.3311 83.2432 21.2866 83.1542 21.2866C83.0652 21.2644 82.9873 21.2644 82.9206 21.2866C82.8093 21.3311 82.7537 21.4201 82.7537 21.5536C82.7537 21.6203 82.776 21.6648 82.8205 21.6871C82.865 21.7316 82.9206 21.7872 82.9873 21.8539C83.0763 21.8984 83.1542 21.8873 83.2209 21.8206ZM112.169 33.0667C112.058 33.0222 111.935 33.0111 111.802 33.0334C111.691 33.0779 111.58 33.0779 111.468 33.0334C111.29 32.9889 111.146 32.9666 111.034 32.9666C110.945 32.9666 110.845 32.9778 110.734 33C110.623 33 110.512 33 110.4 33C109.933 32.9333 109.7 32.7664 109.7 32.4994C109.677 32.3437 109.744 32.2102 109.9 32.099C110.078 31.9877 110.311 31.9544 110.601 31.9989C110.89 31.9989 111.168 31.9321 111.435 31.7986C111.635 31.7986 111.802 31.8654 111.935 31.9989C111.958 32.0211 111.991 32.0322 112.036 32.0322C112.08 32.01 112.113 31.9989 112.136 31.9989C112.536 31.8431 112.87 31.7653 113.137 31.7653C113.871 31.7875 114.438 31.8098 114.839 31.832C115.262 31.8542 115.629 31.8765 115.94 31.8987C116.274 31.8987 116.641 31.9099 117.041 31.9321C117.464 31.9321 118.042 31.9321 118.777 31.9321C118.955 31.7986 119.155 31.7319 119.377 31.7319C119.622 31.7096 119.822 31.6985 119.978 31.6985H120.111V26.1255C119.845 26.1477 119.411 26.17 118.81 26.1922C118.232 26.1922 117.575 26.1922 116.841 26.1922C116.107 26.17 115.373 26.1477 114.639 26.1255C113.904 26.1032 113.248 26.0921 112.67 26.0921C112.113 26.0699 111.713 26.0587 111.468 26.0587C110.957 26.0587 110.601 26.0031 110.4 25.8919C110.2 25.7806 110.056 25.4469 109.967 24.8907C109.967 23.7784 109.955 22.9663 109.933 22.4546C109.911 21.9207 109.9 21.5202 109.9 21.2533C109.9 21.0085 109.922 20.7749 109.967 20.5525C110.011 20.33 110.089 20.1075 110.2 19.885C110.267 19.8183 110.267 19.7627 110.2 19.7182C110.133 19.5847 110.067 19.3956 110 19.1509C109.955 18.8839 109.933 18.6392 109.933 18.4167C109.955 18.172 110.022 18.0273 110.133 17.9829C110.311 17.9161 110.556 17.8827 110.868 17.8827C111.157 17.8827 111.435 17.905 111.702 17.9495C111.969 17.9717 112.113 17.9829 112.136 17.9829C112.581 17.9161 112.914 17.8827 113.137 17.8827C113.404 17.8827 113.715 17.9161 114.071 17.9829C114.472 17.9829 114.705 17.9829 114.772 17.9829C114.839 17.9829 114.906 17.9829 114.972 17.9829C115.039 17.9829 115.273 17.9829 115.673 17.9829C116.496 18.0051 117.119 18.0162 117.542 18.0162C117.987 18.0162 118.387 18.0162 118.743 18.0162C118.988 17.9272 119.288 17.8827 119.644 17.8827H120.045C120.156 17.905 120.256 17.9272 120.345 17.9495C120.456 17.9495 120.568 17.9606 120.679 17.9829C120.857 18.0051 121.024 18.0607 121.179 18.1497C121.357 18.2165 121.357 18.3499 121.179 18.5502C121.024 18.7059 120.879 18.8728 120.746 19.0507C120.612 19.2065 120.479 19.3733 120.345 19.5513C119.856 19.9073 119.266 20.33 118.576 20.8194C117.887 21.2866 117.153 21.7761 116.374 22.2878C115.617 22.7995 114.894 23.3 114.205 23.7895C113.515 24.2567 112.926 24.6794 112.436 25.0576C114.016 25.0576 115.362 25.0798 116.474 25.1243C117.586 25.1466 118.187 25.1577 118.276 25.1577C118.654 24.9797 119.021 24.8796 119.377 24.8574C119.756 24.8351 120.145 24.9019 120.545 25.0576C120.657 25.1021 120.757 25.1577 120.846 25.2245C120.957 25.2689 121.035 25.3246 121.079 25.3913L121.146 25.7584L121.213 26.2923C121.213 26.6038 121.224 27.1155 121.246 27.8274C121.291 28.5171 121.313 29.1845 121.313 29.8297C121.313 30.5416 121.268 31.1868 121.179 31.7653C121.09 32.3437 120.89 32.6552 120.579 32.6997C120.356 32.7219 120.145 32.7775 119.945 32.8665C119.744 32.9333 119.533 32.9666 119.311 32.9666C119.088 32.9666 118.943 32.9666 118.877 32.9666C118.81 32.9444 118.654 32.9333 118.41 32.9333L113.003 33.0334C112.87 32.8554 112.736 32.822 112.603 32.9333C112.469 33.0445 112.325 33.089 112.169 33.0667ZM111.101 24.7573C111.502 24.468 112.024 24.0898 112.67 23.6226C113.315 23.1554 113.982 22.6882 114.672 22.221C115.362 21.7316 115.973 21.32 116.507 20.9863C117.041 20.6526 117.397 20.4746 117.575 20.4523C117.798 20.1854 118.109 19.9073 118.51 19.6181C118.91 19.3288 119.188 19.1064 119.344 18.9506H113.003C112.848 18.7726 112.703 18.7504 112.57 18.8839C112.436 18.9951 112.291 19.0285 112.136 18.984C112.047 18.9395 111.88 18.8839 111.635 18.8171C111.39 18.7504 111.212 18.7059 111.101 18.6837C111.101 18.8171 111.09 19.1064 111.068 19.5513C111.068 19.9963 111.068 20.5191 111.068 21.1198C111.068 21.6982 111.068 22.2655 111.068 22.8217C111.068 23.3779 111.068 23.8451 111.068 24.2233C111.068 24.5793 111.079 24.7573 111.101 24.7573ZM116.307 29.7963C115.907 30.0856 115.417 30.0633 114.839 29.7296C114.683 29.6406 114.516 29.5294 114.338 29.3959C114.182 29.2402 114.138 29.0955 114.205 28.9621C114.249 28.8731 114.327 28.7285 114.438 28.5282C114.55 28.3058 114.672 28.1055 114.805 27.9275C114.961 27.7496 115.095 27.6717 115.206 27.6939C115.384 27.7607 115.573 27.8386 115.773 27.9275C115.996 27.9943 116.163 28.1611 116.274 28.4281C116.363 28.5838 116.43 28.8286 116.474 29.1623C116.541 29.4738 116.485 29.6851 116.307 29.7963ZM115.74 29.1957C115.784 29.1512 115.795 29.0844 115.773 28.9954C115.751 28.8842 115.718 28.8174 115.673 28.7952C115.651 28.7285 115.562 28.6506 115.406 28.5616C115.362 28.5616 115.306 28.6172 115.239 28.7285C115.195 28.8397 115.161 28.9064 115.139 28.9287C115.117 28.9509 115.128 28.9843 115.173 29.0288C115.239 29.0733 115.295 29.1067 115.339 29.1289C115.406 29.1512 115.473 29.1734 115.54 29.1957C115.606 29.2179 115.673 29.2179 115.74 29.1957ZM124.975 33C124.641 32.9333 124.419 32.8443 124.307 32.733C124.218 32.6218 124.152 32.4438 124.107 32.1991C124.063 31.9321 124.04 31.6651 124.04 31.3982V21.5202C124.04 21.3422 124.04 21.1865 124.04 21.053C124.063 20.8973 124.074 20.7416 124.074 20.5858C124.074 20.2076 124.04 19.8183 123.974 19.4178C123.929 19.0174 123.951 18.6837 124.04 18.4167C124.152 18.1497 124.419 18.0273 124.841 18.0496C125.197 18.0496 125.453 18.0496 125.609 18.0496C125.765 18.0496 125.943 18.0496 126.143 18.0496C126.343 18.0496 126.699 18.0496 127.211 18.0496C127.411 18.0496 127.611 18.0385 127.811 18.0162C128.034 17.994 128.245 17.9829 128.445 17.9829C128.757 17.9829 129.235 17.9829 129.88 17.9829C130.548 17.9829 131.249 17.9829 131.983 17.9829C132.739 17.9829 133.407 17.9829 133.985 17.9829C134.564 17.9829 134.931 17.9717 135.086 17.9495H135.487C135.999 17.9495 136.355 18.0273 136.555 18.1831C136.777 18.3388 136.888 18.539 136.888 18.7838C136.888 19.2287 136.599 19.6848 136.021 20.152C135.798 20.3077 135.531 20.4857 135.22 20.6859C134.908 20.8862 134.63 21.1086 134.386 21.3534C133.985 21.8873 133.629 22.2433 133.318 22.4213C133.028 22.5992 132.739 22.8885 132.45 23.2889C132.094 23.7784 131.671 24.1788 131.182 24.4903C130.692 24.8017 130.281 25.18 129.947 25.6249C129.636 26.0254 129.28 26.3146 128.879 26.4926C128.479 26.6483 128.09 26.9486 127.711 27.3936C127.556 27.6161 127.389 27.8274 127.211 28.0277C127.055 28.2056 126.777 28.4504 126.376 28.7618C126.198 28.9843 126.009 29.1512 125.809 29.2624C125.609 29.3514 125.442 29.4626 125.309 29.5961C125.197 29.7296 125.142 29.9521 125.142 30.2635C125.142 30.5528 125.119 30.8754 125.075 31.2313C125.053 31.5873 125.131 31.7653 125.309 31.7653C125.375 31.7653 125.553 31.7653 125.843 31.7653C126.132 31.7653 126.465 31.7653 126.844 31.7653C127.222 31.743 127.556 31.7319 127.845 31.7319C128.156 31.7319 128.356 31.7319 128.445 31.7319C128.623 31.7319 128.846 31.7319 129.113 31.7319C129.402 31.7096 129.636 31.7541 129.814 31.8654C129.925 31.9099 130.058 31.9321 130.214 31.9321C130.37 31.9099 130.526 31.8987 130.681 31.8987C131.06 31.8542 131.404 31.8431 131.716 31.8654C132.05 31.8654 132.406 31.8765 132.784 31.8987C132.895 31.8987 133.162 31.8987 133.585 31.8987C134.007 31.8765 134.43 31.8542 134.853 31.832C135.276 31.8098 135.531 31.7764 135.62 31.7319C135.709 31.6651 135.91 31.6874 136.221 31.7986C136.532 31.8876 136.722 31.9877 136.788 32.099C136.855 32.2102 136.855 32.3882 136.788 32.6329C136.722 32.8776 136.588 33 136.388 33C136.299 33 135.999 33 135.487 33C134.997 33 134.386 33 133.651 33C132.917 33 132.15 33 131.349 33C130.548 33 129.78 33 129.046 33C128.334 33 127.734 33 127.244 33C126.777 33 126.51 33 126.443 33C125.843 33.0667 125.353 33.0667 124.975 33ZM125.108 28.328C125.286 27.9943 125.531 27.7384 125.843 27.5605C126.154 27.3825 126.465 27.2045 126.777 27.0265C127.088 26.8485 127.322 26.5816 127.478 26.2256C127.945 25.8251 128.368 25.4136 128.746 24.9909C129.146 24.5459 129.625 24.2122 130.181 23.9897C130.337 23.923 130.492 23.8117 130.648 23.656C130.804 23.478 130.959 23.3112 131.115 23.1554C131.538 22.6882 132.038 22.221 132.617 21.7538C133.195 21.2866 133.618 20.9195 133.885 20.6526C133.952 20.6081 134.074 20.4968 134.252 20.3189C134.43 20.1409 134.608 19.9518 134.786 19.7515C134.986 19.5291 135.109 19.34 135.153 19.1842C135.22 19.0285 135.164 18.9506 134.986 18.9506C134.541 18.9506 133.918 18.9506 133.117 18.9506C132.317 18.9506 131.516 18.9617 130.715 18.984C129.936 18.984 129.313 18.984 128.846 18.984C128.49 18.984 128.123 18.984 127.745 18.984C127.366 18.984 126.988 18.9951 126.61 19.0174C126.454 19.0174 126.243 19.0396 125.976 19.0841C125.709 19.1064 125.475 19.2065 125.275 19.3845C125.097 19.5624 125.008 19.8739 125.008 20.3189C125.03 20.7861 125.053 21.3756 125.075 22.0875C125.097 22.7995 125.119 23.5448 125.142 24.3234C125.164 25.1021 125.175 25.8474 125.175 26.5593C125.175 27.2712 125.153 27.8608 125.108 28.328ZM129.28 22.488C129.057 22.7105 128.779 22.7327 128.445 22.5547C128.134 22.3768 127.9 22.1877 127.745 21.9874C127.611 21.8094 127.544 21.6315 127.544 21.4535C127.544 21.2755 127.6 21.0864 127.711 20.8862C127.845 20.6637 127.989 20.5413 128.145 20.5191C128.39 20.4746 128.679 20.4746 129.013 20.5191C129.369 20.5413 129.547 20.7193 129.547 21.053C129.547 21.2977 129.625 21.4757 129.78 21.587C129.936 21.6982 129.925 21.8428 129.747 22.0208L129.28 22.488ZM128.846 21.8206L128.979 21.6871C129.024 21.6426 129.024 21.6092 128.979 21.587C128.935 21.5647 128.913 21.5091 128.913 21.4201C128.913 21.3311 128.868 21.2866 128.779 21.2866C128.69 21.2644 128.612 21.2644 128.546 21.2866C128.434 21.3311 128.379 21.4201 128.379 21.5536C128.379 21.6203 128.401 21.6648 128.445 21.6871C128.49 21.7316 128.546 21.7872 128.612 21.8539C128.701 21.8984 128.779 21.8873 128.846 21.8206ZM139.901 33C139.567 32.9333 139.345 32.8443 139.233 32.733C139.144 32.6218 139.078 32.4438 139.033 32.1991C138.989 31.9321 138.966 31.6651 138.966 31.3982V21.5202C138.966 21.3422 138.966 21.1865 138.966 21.053C138.989 20.8973 139 20.7416 139 20.5858C139 20.2076 138.966 19.8183 138.9 19.4178C138.855 19.0174 138.877 18.6837 138.966 18.4167C139.078 18.1497 139.345 18.0273 139.767 18.0496C140.123 18.0496 140.379 18.0496 140.535 18.0496C140.691 18.0496 140.869 18.0496 141.069 18.0496C141.269 18.0496 141.625 18.0496 142.137 18.0496C142.337 18.0496 142.537 18.0385 142.737 18.0162C142.96 17.994 143.171 17.9829 143.371 17.9829C143.683 17.9829 144.161 17.9829 144.806 17.9829C145.474 17.9829 146.175 17.9829 146.909 17.9829C147.665 17.9829 148.333 17.9829 148.911 17.9829C149.489 17.9829 149.857 17.9717 150.012 17.9495H150.413C150.924 17.9495 151.28 18.0273 151.481 18.1831C151.703 18.3388 151.814 18.539 151.814 18.7838C151.814 19.2287 151.525 19.6848 150.947 20.152C150.724 20.3077 150.457 20.4857 150.146 20.6859C149.834 20.8862 149.556 21.1086 149.311 21.3534C148.911 21.8873 148.555 22.2433 148.244 22.4213C147.954 22.5992 147.665 22.8885 147.376 23.2889C147.02 23.7784 146.597 24.1788 146.108 24.4903C145.618 24.8017 145.207 25.18 144.873 25.6249C144.562 26.0254 144.206 26.3146 143.805 26.4926C143.405 26.6483 143.015 26.9486 142.637 27.3936C142.481 27.6161 142.315 27.8274 142.137 28.0277C141.981 28.2056 141.703 28.4504 141.302 28.7618C141.124 28.9843 140.935 29.1512 140.735 29.2624C140.535 29.3514 140.368 29.4626 140.234 29.5961C140.123 29.7296 140.068 29.9521 140.068 30.2635C140.068 30.5528 140.045 30.8754 140.001 31.2313C139.979 31.5873 140.056 31.7653 140.234 31.7653C140.301 31.7653 140.479 31.7653 140.768 31.7653C141.058 31.7653 141.391 31.7653 141.77 31.7653C142.148 31.743 142.481 31.7319 142.771 31.7319C143.082 31.7319 143.282 31.7319 143.371 31.7319C143.549 31.7319 143.772 31.7319 144.039 31.7319C144.328 31.7096 144.562 31.7541 144.74 31.8654C144.851 31.9099 144.984 31.9321 145.14 31.9321C145.296 31.9099 145.452 31.8987 145.607 31.8987C145.985 31.8542 146.33 31.8431 146.642 31.8654C146.975 31.8654 147.331 31.8765 147.71 31.8987C147.821 31.8987 148.088 31.8987 148.511 31.8987C148.933 31.8765 149.356 31.8542 149.779 31.832C150.201 31.8098 150.457 31.7764 150.546 31.7319C150.635 31.6651 150.835 31.6874 151.147 31.7986C151.458 31.8876 151.647 31.9877 151.714 32.099C151.781 32.2102 151.781 32.3882 151.714 32.6329C151.647 32.8776 151.514 33 151.314 33C151.225 33 150.924 33 150.413 33C149.923 33 149.311 33 148.577 33C147.843 33 147.076 33 146.275 33C145.474 33 144.706 33 143.972 33C143.26 33 142.659 33 142.17 33C141.703 33 141.436 33 141.369 33C140.768 33.0667 140.279 33.0667 139.901 33ZM140.034 28.328C140.212 27.9943 140.457 27.7384 140.768 27.5605C141.08 27.3825 141.391 27.2045 141.703 27.0265C142.014 26.8485 142.248 26.5816 142.404 26.2256C142.871 25.8251 143.294 25.4136 143.672 24.9909C144.072 24.5459 144.55 24.2122 145.107 23.9897C145.262 23.923 145.418 23.8117 145.574 23.656C145.73 23.478 145.885 23.3112 146.041 23.1554C146.464 22.6882 146.964 22.221 147.543 21.7538C148.121 21.2866 148.544 20.9195 148.811 20.6526C148.878 20.6081 149 20.4968 149.178 20.3189C149.356 20.1409 149.534 19.9518 149.712 19.7515C149.912 19.5291 150.035 19.34 150.079 19.1842C150.146 19.0285 150.09 18.9506 149.912 18.9506C149.467 18.9506 148.844 18.9506 148.043 18.9506C147.242 18.9506 146.442 18.9617 145.641 18.984C144.862 18.984 144.239 18.984 143.772 18.984C143.416 18.984 143.049 18.984 142.671 18.984C142.292 18.984 141.914 18.9951 141.536 19.0174C141.38 19.0174 141.169 19.0396 140.902 19.0841C140.635 19.1064 140.401 19.2065 140.201 19.3845C140.023 19.5624 139.934 19.8739 139.934 20.3189C139.956 20.7861 139.979 21.3756 140.001 22.0875C140.023 22.7995 140.045 23.5448 140.068 24.3234C140.09 25.1021 140.101 25.8474 140.101 26.5593C140.101 27.2712 140.079 27.8608 140.034 28.328ZM144.206 22.488C143.983 22.7105 143.705 22.7327 143.371 22.5547C143.06 22.3768 142.826 22.1877 142.671 21.9874C142.537 21.8094 142.47 21.6315 142.47 21.4535C142.47 21.2755 142.526 21.0864 142.637 20.8862C142.771 20.6637 142.915 20.5413 143.071 20.5191C143.316 20.4746 143.605 20.4746 143.939 20.5191C144.295 20.5413 144.473 20.7193 144.473 21.053C144.473 21.2977 144.55 21.4757 144.706 21.587C144.862 21.6982 144.851 21.8428 144.673 22.0208L144.206 22.488ZM143.772 21.8206L143.905 21.6871C143.95 21.6426 143.95 21.6092 143.905 21.587C143.861 21.5647 143.839 21.5091 143.839 21.4201C143.839 21.3311 143.794 21.2866 143.705 21.2866C143.616 21.2644 143.538 21.2644 143.471 21.2866C143.36 21.3311 143.305 21.4201 143.305 21.5536C143.305 21.6203 143.327 21.6648 143.371 21.6871C143.416 21.7316 143.471 21.7872 143.538 21.8539C143.627 21.8984 143.705 21.8873 143.772 21.8206Z" fill="white"/>
<path d="M102.952 33.0334C102.863 32.9666 102.741 32.9444 102.585 32.9666C102.429 32.9666 102.285 32.9666 102.151 32.9666C101.195 32.9889 100.583 33 100.316 33C100.049 33 99.8821 32.9555 99.8154 32.8665C99.7264 32.733 99.6485 32.5995 99.5818 32.4661C99.5373 32.3326 99.4928 32.1991 99.4483 32.0656C99.4483 32.0211 99.4483 31.921 99.4483 31.7653C99.4483 31.6095 99.4483 31.2536 99.4483 30.6974C99.4483 30.1412 99.4483 29.2402 99.4483 27.9943C99.4483 26.7484 99.4483 25.0242 99.4483 22.8217C99.4483 22.7105 99.4372 22.5992 99.4149 22.488C99.4149 22.3545 99.4149 22.2321 99.4149 22.1209C99.4149 21.9652 99.4372 21.8206 99.4817 21.6871C99.5262 21.5313 99.604 21.3979 99.7153 21.2866C99.7375 21.2421 99.7375 21.1976 99.7153 21.1531C99.7153 21.0864 99.7153 21.0419 99.7153 21.0197C99.693 20.8862 99.693 20.7527 99.7153 20.6192C99.7375 20.4857 99.7042 20.3745 99.6152 20.2855C99.4817 20.1297 99.4705 20.0185 99.5818 19.9518C99.693 19.8628 99.7375 19.7627 99.7153 19.6514C99.693 19.5624 99.6374 19.4957 99.5484 19.4512C99.4817 19.4067 99.4817 19.34 99.5484 19.251C99.6819 19.0507 99.7486 18.8728 99.7486 18.717C99.7486 18.539 99.693 18.3611 99.5818 18.1831C99.515 18.1163 99.5039 18.0496 99.5484 17.9829C99.6374 17.8716 99.6819 17.7048 99.6819 17.4823C99.6819 17.2598 99.6708 17.0485 99.6485 16.8482C99.6263 16.648 99.6152 16.5368 99.6152 16.5145C99.6152 16.4033 99.6263 16.3254 99.6485 16.2809C99.693 16.2142 99.7153 16.0251 99.7153 15.7136C99.7153 15.3799 99.7153 14.8237 99.7153 14.045C99.7153 13.2441 99.7153 12.154 99.7153 10.7746C99.7153 10.5299 99.5818 10.4075 99.3148 10.4075H97.4794C97.3681 10.4743 97.0901 10.5299 96.6451 10.5744C96.2224 10.5966 95.7997 10.6078 95.377 10.6078C94.9765 10.5855 94.7429 10.5633 94.6762 10.541C94.5872 10.4743 94.5205 10.4632 94.476 10.5076C94.4537 10.5521 94.4315 10.5966 94.4092 10.6411V21.32C94.4092 21.4312 94.4092 21.5981 94.4092 21.8206C94.4092 22.0208 94.3313 22.1988 94.1756 22.3545C94.1534 22.3768 94.1311 22.4991 94.1089 22.7216C94.1089 22.9441 94.1645 23.0998 94.2757 23.1888C94.4537 23.3445 94.4426 23.5225 94.2424 23.7227C94.0866 23.9452 94.0977 24.1899 94.2757 24.4569C94.5427 24.7906 94.5427 25.1243 94.2757 25.4581C94.0755 25.725 94.0644 25.9586 94.2424 26.1589C94.3536 26.2701 94.4092 26.3925 94.4092 26.5259C94.4092 26.6372 94.4092 26.7484 94.4092 26.8597C94.387 26.9486 94.3425 27.0265 94.2757 27.0933C94.2312 27.16 94.209 27.2379 94.209 27.3269C94.209 27.4158 94.2535 27.516 94.3425 27.6272C94.4315 27.7384 94.4537 27.8163 94.4092 27.8608C94.387 27.972 94.3313 28.0944 94.2424 28.2279C94.1756 28.3391 94.1534 28.4504 94.1756 28.5616C94.2201 28.6506 94.2757 28.7507 94.3425 28.8619C94.4315 28.9732 94.4537 29.0955 94.4092 29.229C94.4092 29.7185 94.3981 30.0299 94.3758 30.1634C94.3758 30.2969 94.3758 30.3637 94.3758 30.3637C94.3758 30.3414 94.3758 30.3525 94.3758 30.397C94.3981 30.4415 94.4203 30.6306 94.4426 30.9643C94.4426 31.2536 94.3758 31.5317 94.2424 31.7986C94.1979 31.8876 94.2201 31.9989 94.3091 32.1323C94.3981 32.2658 94.4426 32.3993 94.4426 32.5328C94.4203 32.733 94.3647 32.8665 94.2757 32.9333C94.209 32.9778 93.9865 33 93.6083 33C93.5193 33 93.4526 32.9555 93.4081 32.8665C93.3636 32.7553 93.3413 32.6552 93.3413 32.5662C93.3413 32.4327 93.3302 32.2992 93.308 32.1657C93.308 32.01 93.308 31.8654 93.308 31.7319C93.308 31.2202 93.308 30.4304 93.308 29.3625C93.308 28.2946 93.2968 27.0599 93.2746 25.6583C93.2746 24.2567 93.2746 22.8217 93.2746 21.3534C93.2746 19.974 93.2746 18.6392 93.2746 17.3488C93.2746 16.0362 93.2746 14.8571 93.2746 13.8114C93.2746 12.7435 93.2746 11.887 93.2746 11.2418C93.2968 10.5966 93.308 10.2518 93.308 10.2073C93.308 10.0516 93.3969 9.90696 93.5749 9.77348C93.7752 9.66224 93.9754 9.58437 94.1756 9.53988C94.3758 9.47313 94.5872 9.43976 94.8097 9.43976C94.9209 9.43976 95.0321 9.43976 95.1434 9.43976C95.2546 9.43976 95.3659 9.46201 95.4771 9.5065C95.7663 9.61774 96.0555 9.67336 96.3448 9.67336C96.634 9.65111 96.9232 9.59549 97.2124 9.5065C97.3014 9.46201 97.3904 9.42864 97.4794 9.40639C97.5906 9.38414 97.6796 9.39527 97.7464 9.43976C97.9243 9.52875 98.1023 9.5955 98.2803 9.63999C98.4805 9.66224 98.6696 9.67336 98.8476 9.67336C98.9811 9.67336 99.1813 9.66224 99.4483 9.63999C99.7375 9.61774 99.9822 9.62887 100.182 9.67336C100.36 9.67336 100.483 9.76235 100.55 9.94033C100.616 10.0738 100.683 10.2073 100.75 10.3408C100.817 10.452 100.85 10.5855 100.85 10.7412C100.828 11.7646 100.817 12.788 100.817 13.8114C100.817 14.8348 100.817 15.8582 100.817 16.8816C100.817 17.0151 100.805 17.1374 100.783 17.2487C100.761 17.3599 100.694 17.46 100.583 17.549C100.561 18.3499 100.561 18.895 100.583 19.1842C100.627 19.4734 100.705 19.707 100.817 19.885C100.861 19.9295 100.872 20.0074 100.85 20.1186C100.828 20.2299 100.794 20.3077 100.75 20.3522C100.639 20.4412 100.616 20.5413 100.683 20.6526C100.772 20.7416 100.794 20.8083 100.75 20.8528C100.705 20.9418 100.661 21.0308 100.616 21.1198C100.572 21.2088 100.55 21.3089 100.55 21.4201V31.565C100.55 31.832 100.683 31.9655 100.95 31.9655H103.019C103.153 31.9655 103.275 31.9655 103.386 31.9655C103.497 31.9432 103.597 31.9544 103.686 31.9989C103.798 32.0878 103.92 32.1101 104.054 32.0656C104.209 32.0211 104.343 31.9544 104.454 31.8654C104.543 31.8209 104.621 31.7875 104.688 31.7653C104.777 31.743 104.866 31.7541 104.955 31.7986C104.999 31.8209 105.044 31.8654 105.088 31.9321C105.155 31.9766 105.222 31.9544 105.288 31.8654C105.533 31.6651 105.633 31.4983 105.589 31.3648C105.566 31.2091 105.555 31.02 105.555 30.7975C105.555 30.4193 105.522 30.0077 105.455 29.5627C105.388 29.1178 105.4 28.8174 105.489 28.6617C105.6 28.506 105.6 28.2835 105.489 27.9943C105.4 27.7051 105.366 27.5493 105.388 27.5271C105.455 27.4381 105.5 27.249 105.522 26.9598C105.544 26.6483 105.555 26.0921 105.555 25.2912C105.578 24.468 105.589 23.2667 105.589 21.6871C105.589 21.5758 105.578 21.4535 105.555 21.32C105.555 21.1865 105.611 21.0753 105.722 20.9863C105.833 20.875 105.833 20.7749 105.722 20.6859C105.611 20.5747 105.633 20.4746 105.789 20.3856C105.878 20.2076 105.867 20.0074 105.756 19.7849C105.667 19.5624 105.7 19.3956 105.856 19.2843V16.381C105.878 16.203 105.811 16.0139 105.655 15.8137C105.544 15.747 105.533 15.6691 105.622 15.5801C105.733 15.4689 105.8 15.3465 105.822 15.213C105.867 15.0573 105.889 14.9127 105.889 14.7792C105.889 14.5122 105.878 14.3231 105.856 14.2119C105.833 14.1006 105.833 13.9115 105.856 13.6446C105.9 13.4888 105.856 13.322 105.722 13.144C105.611 12.966 105.555 12.7992 105.555 12.6434C105.6 12.4654 105.667 12.2763 105.756 12.0761C105.844 11.8759 105.889 11.6868 105.889 11.5088C105.867 11.3976 105.856 11.2641 105.856 11.1083C105.856 10.9526 105.856 10.8302 105.856 10.7412C105.856 10.5855 105.856 10.4409 105.856 10.3074C105.856 10.1517 105.867 10.0071 105.889 9.87359C105.889 9.76235 105.922 9.69561 105.989 9.67336C106.078 9.62887 106.167 9.60662 106.256 9.60662C106.523 9.60662 106.668 9.68449 106.69 9.84022C106.712 9.97371 106.723 10.1183 106.723 10.274C106.723 10.4075 106.723 10.5521 106.723 10.7079V15.6468C106.723 15.7581 106.723 15.8804 106.723 16.0139C106.746 16.1474 106.779 16.2698 106.823 16.381C106.912 16.5145 106.901 16.648 106.79 16.7815C106.657 16.9817 106.657 17.1819 106.79 17.3822C106.812 17.3822 106.812 17.5268 106.79 17.816C106.79 18.1052 106.79 18.2609 106.79 18.2832C106.79 18.3499 106.79 18.4167 106.79 18.4834C106.79 18.5279 106.801 18.5724 106.823 18.6169C107.09 18.9284 107.124 19.2398 106.924 19.5513C106.835 19.707 106.779 19.8628 106.757 20.0185C106.734 20.152 106.723 20.3077 106.723 20.4857V25.9586C106.723 26.0476 106.712 26.1477 106.69 26.259C106.668 26.3702 106.601 26.4814 106.49 26.5927C106.467 26.6149 106.445 26.8152 106.423 27.1934C106.423 27.5493 106.423 27.9943 106.423 28.5282C106.423 29.0399 106.423 29.5627 106.423 30.0967C106.423 30.6306 106.423 31.0867 106.423 31.4649C106.423 31.7096 106.49 31.8987 106.623 32.0322C106.668 32.0767 106.69 32.1546 106.69 32.2658C106.668 32.3993 106.545 32.555 106.323 32.733C106.123 32.8888 105.956 32.9666 105.822 32.9666C105.199 32.9889 104.777 33 104.554 33C104.354 33.0222 104.187 32.9889 104.054 32.8999C104.009 32.8554 103.942 32.8443 103.853 32.8665C103.787 32.8665 103.72 32.8665 103.653 32.8665C103.542 32.8443 103.431 32.8999 103.319 33.0334C103.23 33.1669 103.108 33.1669 102.952 33.0334Z" fill="#6366F1"/>
<defs>
<linearGradient id="paint0_linear_16_24" x1="2.14288" y1="9.42856" x2="2573.57" y2="2580.86" gradientUnits="userSpaceOnUse">
<stop stop-color="#6366F1"/>
<stop offset="1" stop-color="#4F46E5"/>
</linearGradient>
</defs>
</svg>
